<?xml version="1.0" encoding="iso-8859-1"?>
<!-- Generator: Adobe Illustrator 19.0.0, SVG Export Plug-In . SVG Version: 6.00 Build 0)  -->
<svg version="1.1" id="Capa_1" xmlns="http://www.w3.org/2000/svg" xmlns:xlink="http://www.w3.org/1999/xlink" x="0px" y="0px"
	 viewBox="0 0 60 60" style="enable-background:new 0 0 60 60;" xml:space="preserve">
<g>
	<g>
		<path d="M59,14h-3v-4c0-0.6-0.4-1-1-1H28V1c0-0.6-0.4-1-1-1H1C0.4,0,0,0.4,0,1v59h2V2h24v8v4H8v2h19h28h3v44h2V15
			C60,14.4,59.6,14,59,14z M28,14v-3h26v3H28z"/>
		<path d="M51,39c-1.9,0-3.4,1.3-3.9,3H42V26.9c1.7-0.4,3-2,3-3.9c0-2.2-1.8-4-4-4s-4,1.8-4,4c0,1.9,1.3,3.4,3,3.9V42h-9v-7.1
			c1.7-0.4,3-2,3-3.9c0-2.2-1.8-4-4-4s-4,1.8-4,4c0,1.9,1.3,3.4,3,3.9V50H18V36.9c1.7-0.4,3-2,3-3.9c0-2.2-1.8-4-4-4s-4,1.8-4,4
			c0,1.9,1.3,3.4,3,3.9V50h-3.1c-0.4-1.7-2-3-3.9-3c-2.2,0-4,1.8-4,4s1.8,4,4,4c1.9,0,3.4-1.3,3.9-3H29v8h2V44h16.1
			c0.4,1.7,2,3,3.9,3c2.2,0,4-1.8,4-4S53.2,39,51,39z M39,23c0-1.1,0.9-2,2-2s2,0.9,2,2s-0.9,2-2,2S39,24.1,39,23z M15,33
			c0-1.1,0.9-2,2-2s2,0.9,2,2s-0.9,2-2,2S15,34.1,15,33z M9,53c-1.1,0-2-0.9-2-2s0.9-2,2-2s2,0.9,2,2S10.1,53,9,53z M28,31
			c0-1.1,0.9-2,2-2s2,0.9,2,2s-0.9,2-2,2S28,32.1,28,31z M51,45c-1.1,0-2-0.9-2-2s0.9-2,2-2s2,0.9,2,2S52.1,45,51,45z"/>
	</g>
</g>
<g>
</g>
<g>
</g>
<g>
</g>
<g>
</g>
<g>
</g>
<g>
</g>
<g>
</g>
<g>
</g>
<g>
</g>
<g>
</g>
<g>
</g>
<g>
</g>
<g>
</g>
<g>
</g>
<g>
</g>
</svg>
